<svg width="37" height="36" viewBox="0 0 37 36" fill="none" xmlns="http://www.w3.org/2000/svg">
<path d="M5 16.4473C5 15.5858 5 15.155 5.11104 14.7583C5.2094 14.4069 5.37105 14.0764 5.58804 13.783C5.83301 13.4518 6.17303 13.1873 6.85309 12.6584L17.0265 4.74573C17.5535 4.33585 17.817 4.13091 18.108 4.05213C18.3647 3.98262 18.6353 3.98262 18.892 4.05213C19.183 4.13091 19.4465 4.33585 19.9735 4.74573L30.1469 12.6584C30.827 13.1874 31.167 13.4518 31.412 13.783C31.629 14.0764 31.7906 14.4069 31.889 14.7583C32 15.155 32 15.5858 32 16.4473V27.2997C32 28.9799 32 29.8199 31.673 30.4617C31.3854 31.0262 30.9265 31.4851 30.362 31.7727C29.7202 32.0997 28.8802 32.0997 27.2 32.0997H18.5H14.15H9.8C8.11984 32.0997 7.27976 32.0997 6.63803 31.7727C6.07354 31.4851 5.6146 31.0262 5.32698 30.4617C5 29.8199 5 28.9799 5 27.2997V16.4473Z" fill="#444444"/>
<path d="M14 32.0997V20.9997C14 20.1596 14 19.7396 14.1635 19.4187C14.3073 19.1365 14.5368 18.907 14.819 18.7632C15.1399 18.5997 15.5599 18.5997 16.4 18.5997H20.6C21.4401 18.5997 21.8601 18.5997 22.181 18.7632C22.4632 18.907 22.6927 19.1365 22.8365 19.4187C23 19.7396 23 20.1596 23 20.9997V32.0997" fill="white"/>
</svg>
