<svg width="36" height="36" viewBox="0 0 36 36" fill="none" xmlns="http://www.w3.org/2000/svg">
<rect width="36" height="36" rx="2" fill="#222222"/>
<path d="M16.5191 27.3467C15.2747 27.3467 14.128 27.1156 13.0791 26.6533C12.048 26.1911 11.2124 25.5156 10.5724 24.6267L13.1058 21.3733C13.5858 22.0489 14.0836 22.5556 14.5991 22.8933C15.1324 23.2133 15.7013 23.3733 16.3058 23.3733C17.0524 23.3733 17.6213 23.1333 18.0124 22.6533C18.4036 22.1733 18.5991 21.4622 18.5991 20.52V12.2267H12.4391V8.33333H23.2124V20.2267C23.2124 22.6089 22.6436 24.3956 21.5058 25.5867C20.3858 26.76 18.7236 27.3467 16.5191 27.3467Z" fill="white"/>
</svg>
