<svg width="37" height="36" viewBox="0 0 37 36" fill="none" xmlns="http://www.w3.org/2000/svg">
<path d="M31.5 18C31.5 25.4558 25.4558 31.5 18 31.5C16.2043 31.5 14.4905 31.1494 12.9232 30.5129C12.6233 30.3911 12.4733 30.3302 12.3521 30.303C12.2335 30.2764 12.1457 30.2667 12.0242 30.2667C11.9 30.2667 11.7646 30.2892 11.494 30.3343L6.15714 31.2238C5.59827 31.317 5.31884 31.3635 5.11678 31.2769C4.93992 31.201 4.79899 31.0601 4.72314 30.8832C4.63647 30.6812 4.68305 30.4017 4.77619 29.8429L5.66566 24.506C5.71077 24.2354 5.73333 24.1 5.73331 23.9758C5.73329 23.8543 5.72357 23.7665 5.69699 23.6479C5.66982 23.5267 5.60891 23.3767 5.48709 23.0768C4.8506 21.5095 4.5 19.7957 4.5 18C4.5 10.5442 10.5442 4.5 18 4.5C25.4558 4.5 31.5 10.5442 31.5 18Z" fill="#444444"/>
<ellipse cx="28.5" cy="7.92554" rx="4.5" ry="4.92554" fill="#FF0051"/>
<ellipse cx="28.5" cy="7.92554" rx="4.5" ry="4.92554" fill="#FF0051"/>
</svg>
